<?xml version="1.0" encoding="UTF-8"?>
<svg id="Icon" xmlns="http://www.w3.org/2000/svg" viewBox="0 0 256 256">
  <defs>
    <style>
      .cls-1 {
        fill: #00ff80;
      }
    </style>
  </defs>
  <g id="Stick">
    <circle class="cls-1" cx="128" cy="128" r="40"/>
  </g>
  <g>
    <path class="cls-1" d="M44.17,88.43c9.18-19.37,24.88-35.07,44.25-44.25.6-.29,1.1-.76,1.4-1.36l9.27-18.53c1.18-2.35-1.03-4.98-3.55-4.22C59.45,30.93,30.93,59.45,20.06,95.54c-.76,2.52,1.87,4.72,4.22,3.55l18.53-9.27c.6-.3,1.07-.79,1.36-1.4Z"/>
    <path class="cls-1" d="M167.57,44.17c19.37,9.18,35.07,24.88,44.25,44.25.29.6.76,1.1,1.36,1.4l18.53,9.27c2.35,1.18,4.98-1.03,4.22-3.55-10.87-36.09-39.39-64.61-75.48-75.48-2.52-.76-4.72,1.87-3.55,4.22l9.27,18.53c.3.6.79,1.07,1.4,1.36Z"/>
    <path class="cls-1" d="M88.43,211.83c-19.37-9.18-35.07-24.88-44.25-44.25-.29-.6-.76-1.1-1.36-1.4l-18.53-9.27c-2.35-1.18-4.98,1.03-4.22,3.55,10.87,36.09,39.39,64.61,75.48,75.48,2.52.76,4.72-1.87,3.55-4.22l-9.27-18.53c-.3-.6-.79-1.07-1.4-1.36Z"/>
    <path class="cls-1" d="M211.83,167.57c-9.18,19.37-24.88,35.07-44.25,44.25-.6.29-1.1.76-1.4,1.36l-9.27,18.53c-1.18,2.35,1.03,4.98,3.55,4.22,36.09-10.87,64.61-39.39,75.48-75.48.76-2.52-1.87-4.72-4.22-3.55l-18.53,9.27c-.6.3-1.07.79-1.36,1.4Z"/>
  </g>
  <g>
    <path class="cls-1" d="M130.68,5.37l19.15,38.29c1,1.99-.45,4.34-2.68,4.34h-38.29c-2.23,0-3.68-2.35-2.68-4.34L125.32,5.37c1.11-2.21,4.26-2.21,5.37,0Z"/>
    <path class="cls-1" d="M250.63,130.68l-38.29,19.15c-1.99,1-4.34-.45-4.34-2.68v-38.29c0-2.23,2.35-3.68,4.34-2.68l38.29,19.15c2.21,1.11,2.21,4.26,0,5.37Z"/>
    <path class="cls-1" d="M125.32,250.63l-19.15-38.29c-1-1.99.45-4.34,2.68-4.34h38.29c2.23,0,3.68,2.35,2.68,4.34l-19.15,38.29c-1.11,2.21-4.26,2.21-5.37,0Z"/>
    <path class="cls-1" d="M5.37,125.32l38.29-19.15c1.99-1,4.34.45,4.34,2.68v38.29c0,2.23-2.35,3.68-4.34,2.68l-38.29-19.15c-2.21-1.11-2.21-4.26,0-5.37Z"/>
  </g>
</svg>